<svg id="Layer_1" data-name="Layer 1" xmlns="http://www.w3.org/2000/svg" xmlns:xlink="http://www.w3.org/1999/xlink" viewBox="0 0 62.73 45.47"><defs><style>.cls-1{fill:none;}.cls-2{clip-path:url(#clip-path);}.cls-3{clip-path:url(#clip-path-2);}.cls-4{clip-path:url(#clip-path-3);}.cls-5{clip-path:url(#clip-path-4);}.cls-6{fill:#737373;}.cls-7{fill:#545454;}.cls-8{clip-path:url(#clip-path-5);}</style><clipPath id="clip-path" transform="translate(-1.18 -3.69)"><rect class="cls-1" x="-146" y="-180.04" width="375" height="382.5"/></clipPath><clipPath id="clip-path-2" transform="translate(-1.18 -3.69)"><rect class="cls-1" x="-146" y="-180.04" width="375" height="375"/></clipPath><clipPath id="clip-path-3" transform="translate(-1.18 -3.69)"><rect class="cls-1" x="42.98" y="-0.79" width="27.75" height="32.25" transform="translate(-2.02 16.33) rotate(-16.06)"/></clipPath><clipPath id="clip-path-4" transform="translate(-1.18 -3.69)"><rect class="cls-1" x="42.72" y="-0.72" width="27.75" height="32.25" transform="translate(-2.05 16.26) rotate(-16.06)"/></clipPath><clipPath id="clip-path-5" transform="translate(-1.18 -3.69)"><rect class="cls-1" x="-81" y="-180.04" width="375" height="375"/></clipPath></defs><g class="cls-2"><g class="cls-3"><g class="cls-4"><g class="cls-5"><path class="cls-6" d="M61.07,18.21a.23.23,0,0,0-.36,0c-.14.23-.27.85-.45.3-1.17-3.8-4.56-7.92-4.92-7.46-.22.29.1.16.3,1.23.17.9-2.36-3.4-4.71-5.06-.35-.24-.52,0-.33.3a1.64,1.64,0,0,1,.35.95c-.13,0-6.12-4.61-11.87-4.76-.53,0,.06.79.35,1.72.9,2.8,2.42,4.48,4.33,6.43,1.36,1.39,1.68,1,1.5,1.42s-.1.43.15.59c4.26,2.7,5.36,2.16,5.19,3-.12.63,4.58,3.37,5.16,3.77.29.2-.33.37.18,1a7.58,7.58,0,0,0,5,3C61.87,24.67,61.28,18.68,61.07,18.21Z" transform="translate(-1.18 -3.69)"/><path class="cls-7" d="M60.87,24.46c1.29,2.16,1.83,4.22,2.18,4.69,1,1.4-.07-5.93-9.09-14.31-4-3.74-4.38-3.84-11.87-8.42C40.65,7.2,52.87,11.08,60.87,24.46Z" transform="translate(-1.18 -3.69)"/></g></g></g></g><g class="cls-8"><path class="cls-7" d="M23.24,43.76a15.28,15.28,0,0,0-.43-2.61.67.67,0,0,1,.1-.48.62.62,0,0,1,.43-.27h0a.6.6,0,0,1,.53.22.56.56,0,0,1,.12.57Zm-7-4a.6.6,0,0,1-.53-.22.56.56,0,0,1-.09-.55l1-3.55a10.37,10.37,0,0,1,1,.45,7.56,7.56,0,0,1,2.74,2.62.67.67,0,0,1,0,.6.65.65,0,0,1-.5.34C18.66,39.59,17.44,39.68,16.26,39.78ZM2.44,39.3s0-.27.72-.84a16.84,16.84,0,0,1,10-3.6,7,7,0,0,1,1.63.12.59.59,0,0,1,.41.26.65.65,0,0,1,.07.51l-1.06,3.74a.63.63,0,0,1-.55.46C7.16,40.31,2.77,40.14,2.44,39.3Zm28.84-1.15c-1.46.21-2.88.38-4.29.57a.69.69,0,0,1-.55-.21.64.64,0,0,1-.1-.58l5.11-16.82a.64.64,0,1,0-1.22-.36L24.8,38.6a.57.57,0,0,1-.5.43l-1.68.17a.62.62,0,0,1-.62-.36,8.87,8.87,0,0,0-3.75-4c-.26-.12-.53-.26-.81-.38a.6.6,0,0,1-.34-.72l3.22-11.57a.62.62,0,0,0-.77-.79.53.53,0,0,0-.43.45L15.9,33.35a.64.64,0,0,1-.72.43c-4.37-.79-9.41,1-12.79,3.72-1,.81-1.42,1.58-1.11,2.3.65,1.54,5.69,1.75,11.57,1.49a.59.59,0,0,1,.51.22.66.66,0,0,1,.12.55L11.7,48.39a.63.63,0,0,0,1.22.34l2-7.15a.61.61,0,0,1,.55-.46c1.8-.12,3.62-.29,5.37-.45a.59.59,0,0,1,.65.43,19.24,19.24,0,0,1,.41,7.13.61.61,0,0,0,.48.69.62.62,0,0,0,.74-.43l2.43-8a.57.57,0,0,1,.5-.43c2.21-.26,4.08-.5,5.4-.7A.6.6,0,0,0,32,39a.64.64,0,0,0-.08-.62A.62.62,0,0,0,31.28,38.15Z" transform="translate(-1.18 -3.69)"/><path class="cls-7" d="M43.8,48.49c2.33-1.15,4.18-3.82,5.57-6.77a.31.31,0,0,1,.36-.17.28.28,0,0,1,.24.34c-.17,2.45,0,4.46,1.11,5.76A4.17,4.17,0,0,0,54.29,49c4.42.15,7.42-5.59,8.76-11s1.37-12-1.82-13.58a.68.68,0,0,0-.65,0,.67.67,0,0,0,.07,1.11c2.11,1,2.62,6.38,1.18,12.14-1.18,4.68-3.84,10.06-7.49,10a3,3,0,0,1-2.3-.91c-1.44-1.75-.8-5.91-.1-10.3.26-1.58.53-3.21.7-4.82a.64.64,0,0,0-.51-.7.65.65,0,0,0-.72.48c-1.87,8.33-4.92,14.23-8.16,15.84a4.15,4.15,0,0,1-3.79,0c-3.26-1.51-.89-7.15,1.2-12.12,1.63-3.87,3-7.2,2.06-9a2.28,2.28,0,0,0-1.65-1.13c-4.32-.79-10,2.4-11.91,6.72-1.41,3.22-.43,6.43,2.69,8.78a.64.64,0,0,0,.89-.12.61.61,0,0,0-.12-.88c-3.43-2.57-3.14-5.38-2.3-7.28,1.65-3.76,6.79-6.67,10.51-6a1,1,0,0,1,.79.48c.67,1.27-.74,4.63-2.11,7.89-2.33,5.5-4.95,11.74-.6,13.78a5.92,5.92,0,0,0,2.47.58A5.6,5.6,0,0,0,43.8,48.49Z" transform="translate(-1.18 -3.69)"/></g></svg>