<svg id="Layer_1" data-name="Layer 1" xmlns="http://www.w3.org/2000/svg" xmlns:xlink="http://www.w3.org/1999/xlink" viewBox="0 0 212.97 45.78"><defs><style>.cls-1{fill:none;}.cls-2{clip-path:url(#clip-path);}.cls-3{clip-path:url(#clip-path-2);}.cls-4{clip-path:url(#clip-path-3);}.cls-5{clip-path:url(#clip-path-4);}.cls-6{fill:#737373;}.cls-7{fill:#fff;}.cls-8{fill:#545454;}</style><clipPath id="clip-path" transform="translate(-1.18 -3.69)"><rect class="cls-1" x="-81" y="-180.04" width="375" height="382.5"/></clipPath><clipPath id="clip-path-2" transform="translate(-1.18 -3.69)"><rect class="cls-1" x="-81" y="-180.04" width="375" height="375"/></clipPath><clipPath id="clip-path-3" transform="translate(-1.18 -3.69)"><rect class="cls-1" x="107.98" y="-0.79" width="27.75" height="32.25" transform="translate(0.51 34.31) rotate(-16.06)"/></clipPath><clipPath id="clip-path-4" transform="translate(-1.18 -3.69)"><rect class="cls-1" x="107.72" y="-0.72" width="27.75" height="32.25" transform="translate(0.48 34.24) rotate(-16.06)"/></clipPath></defs><g class="cls-2"><g class="cls-3"><g class="cls-4"><g class="cls-5"><path class="cls-6" d="M126.07,18.21a.23.23,0,0,0-.36,0c-.14.23-.27.85-.45.3-1.17-3.8-4.56-7.92-4.92-7.46-.22.29.1.16.3,1.23.17.9-2.36-3.4-4.71-5.06-.35-.24-.52,0-.33.3a1.64,1.64,0,0,1,.35.95c-.13,0-6.12-4.61-11.87-4.76-.53,0,.06.79.35,1.72.9,2.8,2.42,4.48,4.33,6.43,1.36,1.39,1.68,1,1.5,1.42s-.1.43.15.59c4.26,2.7,5.36,2.16,5.19,3-.12.63,4.58,3.37,5.16,3.77.29.2-.33.37.18,1a7.58,7.58,0,0,0,5,3C126.87,24.67,126.28,18.68,126.07,18.21Z" transform="translate(-1.18 -3.69)"/><path class="cls-7" d="M128.46,29.32a3.59,3.59,0,0,1,2.49-.13c1.29.2,1.24-.64,2.75-.76a4.69,4.69,0,0,0,1.54-.17c1.68-.46.7-2.19,1.9-2.1s2,.86,2.11.55-3.06-2.06-3.38-.25c-.24,1.34-.38,1.4-2.59,1.53-1.28.08-1.13,1-2.6.71C127.73,28.16,127.71,29.83,128.46,29.32Z" transform="translate(-1.18 -3.69)"/><path class="cls-8" d="M125.87,24.46c1.29,2.16,1.83,4.22,2.18,4.69,1,1.4-.07-5.93-9.09-14.31-4-3.74-4.38-3.84-11.87-8.42C105.65,7.2,117.87,11.08,125.87,24.46Z" transform="translate(-1.18 -3.69)"/></g></g></g></g><g class="cls-3"><path class="cls-8" d="M23.24,43.76a15.28,15.28,0,0,0-.43-2.61.67.67,0,0,1,.1-.48.62.62,0,0,1,.43-.27h0a.6.6,0,0,1,.53.22.56.56,0,0,1,.12.57Zm-7-4a.6.6,0,0,1-.53-.22.56.56,0,0,1-.09-.55l1-3.55a10.37,10.37,0,0,1,1,.45,7.56,7.56,0,0,1,2.74,2.62.67.67,0,0,1,0,.6.65.65,0,0,1-.5.34C18.66,39.59,17.44,39.68,16.26,39.78ZM2.44,39.3s0-.27.72-.84a16.84,16.84,0,0,1,10-3.6,7,7,0,0,1,1.63.12.59.59,0,0,1,.41.26.65.65,0,0,1,.07.51l-1.06,3.74a.63.63,0,0,1-.55.46C7.16,40.31,2.77,40.14,2.44,39.3Zm28.84-1.15c-1.46.21-2.88.38-4.29.57a.69.69,0,0,1-.55-.21.64.64,0,0,1-.1-.58l5.11-16.82a.64.64,0,1,0-1.22-.36L24.8,38.6a.57.57,0,0,1-.5.43l-1.68.17a.62.62,0,0,1-.62-.36,8.87,8.87,0,0,0-3.75-4c-.26-.12-.53-.26-.81-.38a.6.6,0,0,1-.34-.72l3.22-11.57a.62.62,0,0,0-.77-.79.53.53,0,0,0-.43.45L15.9,33.35a.64.64,0,0,1-.72.43c-4.37-.79-9.41,1-12.79,3.72-1,.81-1.42,1.58-1.11,2.3.65,1.54,5.69,1.75,11.57,1.49a.59.59,0,0,1,.51.22.66.66,0,0,1,.12.55L11.7,48.39a.63.63,0,0,0,1.22.34l2-7.15a.61.61,0,0,1,.55-.46c1.8-.12,3.62-.29,5.37-.45a.59.59,0,0,1,.65.43,19.24,19.24,0,0,1,.41,7.13.61.61,0,0,0,.48.69.62.62,0,0,0,.74-.43l2.43-8a.57.57,0,0,1,.5-.43c2.21-.26,4.08-.5,5.4-.7A.6.6,0,0,0,32,39a.64.64,0,0,0-.08-.62A.62.62,0,0,0,31.28,38.15Z" transform="translate(-1.18 -3.69)"/><path class="cls-8" d="M33.37,43.71a4.74,4.74,0,0,1,3.48-2.08c.27,0,.41.09.46.45s-.24.58-.72.89C35.6,43.62,32.65,44.67,33.37,43.71ZM52,43.19a.62.62,0,0,0-.43-.22.61.61,0,0,0-.46.12c-.09.07-9.33,7.42-17,4.25-1.56-.65-1.63-1.49-1.58-2a.22.22,0,0,1,.09-.19.21.21,0,0,1,.22,0A7.58,7.58,0,0,0,37.28,44c1.16-.75,1.35-1.56,1.28-2.09a1.69,1.69,0,0,0-1.64-1.59c-1.89-.09-5.06,2.16-5.59,4.56-.21.89-.19,2.57,2.28,3.58a12.34,12.34,0,0,0,4.71.91c6.88,0,13.27-5.06,13.6-5.33a.56.56,0,0,0,.22-.4A.68.68,0,0,0,52,43.19Z" transform="translate(-1.18 -3.69)"/><path class="cls-8" d="M71.17,43.55a.64.64,0,0,0-.91,0c-.07.07-7.2,6.48-11.62,3.57-1.75-1.15-2.18-3.93-2.18-4a.62.62,0,0,0-.53-.55.71.71,0,0,0-.67.36c-1.13,2.5-3.12,5.67-3.67,5.31-.05,0-.15-.1-.22-.27a2.89,2.89,0,0,1,.22-2.4,7,7,0,0,1,4.61-3.72.63.63,0,0,0,.45-.43.66.66,0,0,0-.14-.62.68.68,0,0,0-.6-.17A8.24,8.24,0,0,0,50.44,45a4.19,4.19,0,0,0-.2,3.51,1.47,1.47,0,0,0,1.35.93h0c1.18,0,2.64-1.48,3.65-3.07a.56.56,0,0,1,.55-.26.57.57,0,0,1,.51.31A4.88,4.88,0,0,0,58,48.11c5.23,3.48,12.84-3.39,13.17-3.68a.64.64,0,0,0,.2-.43A.6.6,0,0,0,71.17,43.55Z" transform="translate(-1.18 -3.69)"/><path class="cls-8" d="M77.92,39.44c.38-4.39,2.13-8.25,3.62-9.36a.41.41,0,0,1,.43,0,.42.42,0,0,1,.19.36c-.21,1.83-1.51,5.11-3.91,9.39C77.87,40.45,77.87,39.87,77.92,39.44ZM93.2,43.86a.68.68,0,0,0-.43-.19.64.64,0,0,0-.45.19c-3.63,3.55-8.91,4.77-11.12,4.08-1.87-.6-2.73-2.31-3.12-4.11a1.51,1.51,0,0,1,.22-1.12c2.88-4.9,5.93-12,4.87-13.66a1.09,1.09,0,0,0-1.13-.5c-2.66.33-4.94,5.85-5.4,10.77a20.33,20.33,0,0,0,0,3.12,1.55,1.55,0,0,1-.24,1c-.14.24-.31.51-.48.75-2.11,3.12-3.55,4.12-4.15,4.05a.72.72,0,0,1-.65-.53,4.6,4.6,0,0,1,.74-3.48c.51-.6,1.25-1.27,2-1.12a1.44,1.44,0,0,1,.91.81.66.66,0,0,0,.72.53.63.63,0,0,0,.53-.72,2.6,2.6,0,0,0-1.75-1.8c-.74-.24-1.94-.14-3.34,1.49a5.74,5.74,0,0,0-1,4.75,2,2,0,0,0,1.64,1.32h.24c1.27,0,2.88-1.37,4.77-4.08a.37.37,0,0,1,.36-.14.32.32,0,0,1,.31.21,5.65,5.65,0,0,0,3.58,3.7c2.83.89,8.59-.7,12.38-4.39A.64.64,0,0,0,93.2,43.86Z" transform="translate(-1.18 -3.69)"/><path class="cls-8" d="M108.8,48.49c2.33-1.15,4.18-3.82,5.57-6.77a.31.31,0,0,1,.36-.17.28.28,0,0,1,.24.34c-.17,2.45,0,4.46,1.11,5.76A4.17,4.17,0,0,0,119.29,49c4.42.15,7.42-5.59,8.76-11s1.37-12-1.82-13.58a.68.68,0,0,0-.65,0,.67.67,0,0,0,.07,1.11c2.11,1,2.62,6.38,1.18,12.14-1.18,4.68-3.84,10.06-7.49,10a3,3,0,0,1-2.3-.91c-1.44-1.75-.8-5.91-.1-10.3.26-1.58.53-3.21.7-4.82a.64.64,0,0,0-.51-.7.65.65,0,0,0-.72.48c-1.87,8.33-4.92,14.23-8.16,15.84a4.15,4.15,0,0,1-3.79,0c-3.26-1.51-.89-7.15,1.2-12.12,1.63-3.87,3-7.2,2.06-9a2.28,2.28,0,0,0-1.65-1.13c-4.32-.79-10,2.4-11.91,6.72-1.41,3.22-.43,6.43,2.69,8.78a.64.64,0,0,0,.89-.12.61.61,0,0,0-.12-.88c-3.43-2.57-3.14-5.38-2.3-7.28,1.65-3.76,6.79-6.67,10.51-6a1,1,0,0,1,.79.48c.67,1.27-.74,4.63-2.11,7.89-2.33,5.5-5,11.74-.6,13.78a5.92,5.92,0,0,0,2.47.58A5.6,5.6,0,0,0,108.8,48.49Z" transform="translate(-1.18 -3.69)"/><path class="cls-8" d="M129.23,41.72a1.89,1.89,0,0,1,.65-1.87,14.69,14.69,0,0,1-.65,1.9Zm20,1.32a.59.59,0,0,0-.43-.19.66.66,0,0,0-.46.19c-4.15,4.06-11.52,4.92-13.1,4-1.08-.63-1-1.37-.19-2.86.36-.72.76-1.56.07-2.06s-1.27-.17-1.83.12a5.25,5.25,0,0,1-2.61.69c-.22,0-.41-.38-.36-.53,1.34-3,.74-3.5.53-3.72-.36-.36-.92-.33-1.59.08a3.23,3.23,0,0,0-1.2,3.52,2.67,2.67,0,0,0,.51,1,.6.6,0,0,0,.33.62.71.71,0,0,0,.48,0,3.16,3.16,0,0,0,1.32.28,5.38,5.38,0,0,0,2.81-.67c.34-.17.46,0,.41.07-.58,1.13-1.61,3.2.69,4.54a5.32,5.32,0,0,0,2.64.48,18.63,18.63,0,0,0,12-4.68.56.56,0,0,0,.19-.43A.57.57,0,0,0,149.22,43Z" transform="translate(-1.18 -3.69)"/><path class="cls-8" d="M148.43,41a.82.82,0,0,0,.29-.07,6.07,6.07,0,0,0,1.53-1.13.64.64,0,0,0,0-.89.62.62,0,0,0-.89,0,5.1,5.1,0,0,1-1.22.89.64.64,0,0,0-.32.7A.65.65,0,0,0,148.43,41Zm15.33,1.89a.6.6,0,0,0-.88,0c-.1.07-7.88,8-13,4.22-1.58-1.15,0-4.15,0-4.17a.64.64,0,0,0-.29-.84.63.63,0,0,0-.84.26c-.09.14-2,4,.41,5.76A6.4,6.4,0,0,0,153,49.4c5.18,0,10.44-5.35,10.72-5.64a.6.6,0,0,0,.2-.43A.84.84,0,0,0,163.76,42.87Z" transform="translate(-1.18 -3.69)"/><path class="cls-8" d="M164.44,39.63c-.24,0-.15-1.68.07-1.92a.58.58,0,0,1,.62,0C165.35,37.88,164.7,39.63,164.44,39.63Zm.28-3.76c.56-3.65,1.66-6.53,2.31-7.28a.33.33,0,0,1,.26,0,.29.29,0,0,1,.19.16c.29.63-.52,3.68-1.75,7.3a.51.51,0,0,1-.45.41,2.36,2.36,0,0,1-.39,0c-.24,0-.19-.38-.17-.55Zm14.69,7a.62.62,0,0,0-.89,0s-6.55,6.6-10.87,5c-1.92-.75-2.73-3-3.05-5.19.44-1.05,1.16-2.8,1.83-4.77.07-.24.14-.27.43-.29,3.24-.24,6.46-.36,8.35-.36a.63.63,0,0,0,.63-.62.62.62,0,0,0-.63-.63c-1.82,0-4.82.15-7.89.31-.12,0-.34,0-.17-.48,1.15-3.28,2-6.62,1.46-7.63s-1.17-1-1.51-1c-1.78.34-3.07,4.95-3.65,8.71,0,.34-.21.63-.53.65-3.76.29-6.86.51-6.91.51a.62.62,0,0,0-.6.67.61.61,0,0,0,.65.6h.05l6.6-.48A.34.34,0,0,1,163,38a.43.43,0,0,1,.17.32c-.36,5.71,1.08,9.62,4,10.72a5.78,5.78,0,0,0,1.94.34c4.75,0,10-5.35,10.3-5.59a.68.68,0,0,0,0-.91Z" transform="translate(-1.18 -3.69)"/><path class="cls-8" d="M179.77,43.71a4.74,4.74,0,0,1,3.48-2.08c.27,0,.41.09.46.45s-.24.58-.72.89C182,43.62,179.05,44.67,179.77,43.71Zm18.65-.52A.62.62,0,0,0,198,43a.61.61,0,0,0-.46.12c-.09.07-9.33,7.42-17,4.25-1.56-.65-1.63-1.49-1.58-2a.22.22,0,0,1,.09-.19.21.21,0,0,1,.22,0A7.58,7.58,0,0,0,183.68,44c1.16-.75,1.35-1.56,1.28-2.09a1.69,1.69,0,0,0-1.64-1.59c-1.89-.09-5.06,2.16-5.59,4.56-.21.89-.19,2.57,2.28,3.58a12.34,12.34,0,0,0,4.71.91c6.88,0,13.27-5.06,13.6-5.33a.56.56,0,0,0,.22-.4A.68.68,0,0,0,198.42,43.19Z" transform="translate(-1.18 -3.69)"/><path class="cls-8" d="M214,42.71a.57.57,0,0,0-.43-.17.64.64,0,0,0-.46.17,18,18,0,0,1-8.23,4.46.28.28,0,0,1-.33-.1.32.32,0,0,1,0-.36,2.51,2.51,0,0,0-.21-2.61A4.09,4.09,0,0,0,203,43c-.67-.46-1.41-1-1.44-1.54a1.48,1.48,0,0,1,.36-.84l1.3-1.22a.63.63,0,0,0,.05-.86.61.61,0,0,0-.87-.1A8.25,8.25,0,0,0,201,39.73l-3.69,3.46a.64.64,0,0,0-.2.6.65.65,0,0,0,.44.48.69.69,0,0,0,.62-.17L200,42.39a.49.49,0,0,1,.34-.12.36.36,0,0,1,.26.2A5.82,5.82,0,0,0,202.28,44a3.73,3.73,0,0,1,.94.77,1.13,1.13,0,0,1,.29,1,1.2,1.2,0,0,1-.6.84,3.51,3.51,0,0,1-4.54-1,.63.63,0,0,0-1.05.68,4.79,4.79,0,0,0,3.79,2.37,6.94,6.94,0,0,0,1.2.1c4.05,0,9.05-2.55,11.66-5.19A.63.63,0,0,0,214,42.71Z" transform="translate(-1.18 -3.69)"/></g></svg>