<?xml version="1.0" standalone="no"?>
<!DOCTYPE svg PUBLIC "-//W3C//DTD SVG 20010904//EN"
 "http://www.w3.org/TR/2001/REC-SVG-20010904/DTD/svg10.dtd">
<svg version="1.0" xmlns="http://www.w3.org/2000/svg"
 width="1008.000000pt" height="1008.000000pt" viewBox="0 0 1008.000000 1008.000000"
 preserveAspectRatio="xMidYMid meet">
<metadata>
Created by potrace 1.14, written by Peter Selinger 2001-2017
</metadata>
<g transform="translate(0.000000,1008.000000) scale(0.100000,-0.100000)"
fill="#000000" stroke="none">
<path d="M7150 8349 c-36 -11 -73 -22 -82 -24 -10 -3 -26 -7 -35 -9 -10 -3
-49 -14 -88 -26 -38 -12 -74 -22 -80 -23 -5 -2 -16 -6 -22 -10 -7 -5 -13 -6
-13 -3 0 3 -18 -1 -40 -9 -22 -8 -40 -12 -40 -8 0 3 -6 1 -12 -5 -7 -5 -29
-13 -48 -17 -19 -4 -39 -10 -45 -13 -5 -3 -16 -7 -25 -8 -24 -3 -53 -11 -85
-24 -16 -6 -31 -11 -32 -11 -2 1 -4 1 -5 0 -2 0 -10 -2 -18 -4 -45 -11 -193
-54 -196 -58 -6 -6 125 -221 136 -225 6 -2 10 -8 10 -13 0 -6 4 -15 10 -22 5
-7 42 -52 82 -102 104 -129 126 -153 293 -321 92 -93 174 -165 213 -189 69
-42 66 -32 45 -121 -4 -18 12 -32 109 -92 214 -132 415 -233 622 -313 94 -36
152 -79 142 -104 -8 -22 7 -55 44 -94 35 -36 180 -148 230 -178 17 -9 30 -21
30 -25 0 -4 4 -8 9 -8 5 0 62 -35 127 -78 66 -43 166 -107 224 -142 58 -35
107 -68 108 -72 2 -4 9 -8 16 -8 7 0 22 -9 34 -20 17 -17 20 -25 12 -40 -13
-25 -13 -66 1 -93 39 -76 198 -232 319 -314 117 -79 239 -135 365 -168 33 -8
49 -18 47 -27 -18 -70 0 -117 61 -154 46 -28 137 -122 137 -141 0 -7 4 -13 8
-13 25 0 108 -246 128 -380 3 -19 7 -46 10 -60 23 -134 23 -547 0 -730 -2 -14
-6 -50 -10 -80 -4 -30 -9 -66 -11 -80 -3 -14 -7 -47 -10 -74 -4 -28 -8 -52
-10 -56 -2 -3 -6 -26 -10 -50 -10 -65 -62 -294 -85 -370 -10 -36 -33 -112 -51
-170 -18 -58 -33 -107 -34 -110 -1 -3 -5 -14 -10 -25 -4 -11 -28 -72 -53 -135
-63 -163 -140 -322 -220 -458 -75 -125 -215 -316 -226 -305 -3 3 -6 1 -6 -6 0
-32 -200 -192 -295 -236 -110 -51 -154 -60 -285 -60 -139 0 -183 11 -277 71
-71 45 -107 85 -142 158 -29 58 -65 166 -56 166 3 0 0 11 -4 24 -28 71 -31
473 -6 641 2 17 7 50 10 75 2 25 7 65 11 90 3 25 7 59 9 75 3 32 13 105 20
145 2 14 6 45 10 70 3 25 8 59 12 75 3 17 7 44 9 60 1 17 5 41 8 55 3 14 8 46
11 71 2 25 7 52 9 60 3 8 8 32 11 54 3 22 10 65 15 95 5 30 12 73 15 95 2 22
7 51 9 65 8 37 20 126 31 215 2 22 7 50 9 63 3 13 8 60 12 106 6 82 6 83 -22
114 -54 58 -131 47 -160 -23 -10 -22 -18 -46 -20 -54 -1 -7 -8 -34 -14 -60 -6
-25 -12 -55 -15 -66 -5 -28 -61 -240 -80 -305 -9 -30 -17 -62 -19 -70 -6 -25
-57 -194 -63 -210 -4 -8 -7 -17 -8 -20 -1 -3 -8 -25 -15 -50 -7 -25 -14 -47
-15 -50 -1 -3 -5 -14 -9 -25 -4 -11 -12 -33 -18 -50 -5 -16 -14 -39 -18 -50
-4 -11 -22 -60 -40 -110 -18 -49 -37 -101 -43 -115 -6 -14 -11 -27 -12 -30 -1
-3 -9 -22 -18 -44 -9 -21 -17 -40 -17 -41 0 -2 -15 -36 -33 -77 -18 -40 -42
-93 -52 -118 -11 -25 -22 -47 -25 -50 -3 -3 -25 -45 -49 -95 -43 -86 -187
-335 -201 -345 -4 -3 -15 -20 -25 -37 -11 -18 -23 -33 -27 -33 -4 0 -8 -5 -8
-12 0 -6 -7 -18 -15 -27 -8 -9 -41 -47 -72 -86 -65 -79 -160 -174 -213 -214
-19 -14 -37 -28 -40 -31 -27 -28 -169 -103 -232 -124 -142 -46 -331 -41 -448
12 -19 8 -37 16 -40 17 -68 24 -141 80 -187 143 -104 143 -121 339 -58 661 2
9 11 45 20 81 9 36 18 72 20 80 6 24 52 173 63 200 5 14 11 30 12 35 2 6 6 19
10 30 5 11 34 90 66 175 31 85 66 175 78 200 11 25 21 50 21 55 1 6 12 32 23
58 12 27 22 51 22 54 0 3 16 39 35 80 19 41 35 78 35 82 0 7 49 125 85 206 23
51 95 235 132 335 19 52 37 102 40 110 4 8 7 17 8 20 1 3 4 12 8 20 18 47 77
251 83 290 3 14 7 39 11 55 12 57 14 70 17 175 5 158 -27 256 -108 335 -53 51
-137 94 -197 101 -14 1 -43 5 -65 9 -74 14 -325 8 -414 -10 -14 -3 -34 -7 -45
-9 -115 -23 -251 -66 -365 -114 -100 -42 -254 -122 -258 -134 -2 -4 -8 -8 -13
-8 -13 0 -149 -92 -229 -154 -143 -113 -336 -320 -410 -441 -13 -22 -28 -43
-33 -46 -5 -3 -7 -8 -6 -10 2 -2 -9 -24 -24 -49 -31 -54 -99 -210 -90 -210 3
0 1 -6 -5 -12 -11 -15 -42 -134 -50 -198 -14 -104 -5 -303 18 -395 12 -49 26
-94 31 -100 5 -5 9 -15 9 -23 0 -17 74 -166 102 -205 11 -16 18 -30 16 -32 -2
-2 -26 -6 -53 -9 -28 -3 -84 -11 -125 -16 -261 -37 -286 -38 -321 -19 -12 6
-27 25 -34 43 -15 35 -14 39 35 201 11 39 29 99 40 135 10 36 26 84 34 108 8
23 15 43 14 45 -1 2 20 72 29 97 3 8 7 21 9 28 1 6 14 51 29 99 15 47 28 91
29 97 6 28 58 193 67 209 6 11 8 21 5 24 -3 3 -1 14 5 25 6 11 12 29 15 41 2
12 11 42 19 67 16 48 65 208 69 225 2 6 8 28 14 50 6 22 12 45 13 50 0 6 5 18
10 27 5 9 15 40 23 70 8 29 29 98 46 153 17 55 33 107 35 115 1 8 13 44 25 80
12 36 23 74 25 84 3 11 11 40 19 65 8 25 31 100 51 166 20 66 39 127 42 135 3
8 7 20 7 25 2 10 22 77 82 270 19 61 32 120 30 132 -13 65 -67 99 -129 82 -46
-12 -62 -36 -88 -124 -11 -38 -23 -77 -26 -85 -3 -8 -7 -21 -9 -28 -5 -26
-106 -358 -114 -377 -5 -11 -15 -40 -21 -65 -16 -59 -16 -57 -33 -115 -61
-204 -145 -478 -184 -600 -9 -27 -17 -53 -18 -57 -1 -5 -2 -9 -3 -10 -2 -2 -4
-14 -7 -28 -2 -14 -8 -34 -13 -45 -9 -18 -81 -257 -85 -280 -1 -5 -5 -15 -8
-21 -4 -6 -9 -21 -12 -35 -2 -13 -71 -240 -151 -504 -81 -264 -153 -500 -160
-525 -16 -60 -31 -87 -55 -100 -19 -10 -115 -24 -172 -25 -16 0 -28 -2 -28 -5
0 -10 -136 -10 -161 1 -18 7 -39 34 -64 82 -147 282 -365 498 -635 630 -52 26
-102 52 -111 59 -23 19 -30 57 -18 103 5 22 12 50 14 61 3 12 14 51 24 85 18
60 29 104 31 121 0 4 7 26 15 49 9 23 17 51 20 63 2 12 25 95 50 186 26 91 53
190 62 220 14 52 29 106 38 140 2 8 4 16 5 18 2 1 3 5 5 10 1 4 5 19 9 33 4
14 8 32 10 40 1 8 10 41 20 74 48 168 96 342 102 370 2 11 8 31 13 45 6 14 31
104 57 200 l47 175 -19 35 c-33 61 -132 71 -167 16 -11 -17 -43 -119 -62 -196
-2 -8 -8 -27 -14 -42 -6 -16 -9 -28 -6 -28 2 0 -2 -18 -10 -40 -8 -22 -15 -44
-15 -48 0 -4 -6 -25 -12 -47 -6 -22 -12 -44 -14 -50 -1 -5 -21 -77 -44 -160
-23 -82 -66 -238 -96 -345 -66 -236 -82 -291 -100 -350 -7 -25 -18 -63 -23
-85 -5 -22 -24 -89 -41 -150 -17 -60 -39 -139 -49 -175 -46 -166 -55 -191 -78
-214 -22 -22 -32 -24 -86 -21 -34 1 -89 7 -122 11 -109 16 -447 9 -552 -10
-10 -2 -38 -7 -63 -11 -56 -9 -64 -11 -125 -25 -27 -6 -60 -14 -73 -16 -52
-10 -260 -77 -359 -116 -146 -57 -436 -202 -471 -235 -7 -7 -17 -13 -22 -13
-5 0 -15 -6 -22 -12 -8 -7 -25 -20 -40 -28 -71 -41 -250 -184 -300 -239 -118
-131 -128 -255 -29 -343 25 -22 66 -49 91 -60 59 -25 196 -65 251 -73 24 -3
55 -8 69 -10 56 -11 68 -13 145 -20 44 -3 99 -9 123 -11 118 -12 722 -24 722
-14 0 3 51 6 113 6 61 1 160 3 219 4 96 2 110 0 137 -20 17 -12 29 -25 26 -30
-3 -5 -1 -12 5 -15 10 -6 9 -25 -3 -80 -3 -11 -42 -150 -87 -310 -46 -159 -86
-305 -91 -322 -8 -30 -22 -82 -34 -123 -2 -8 -14 -49 -25 -90 -12 -41 -23 -82
-25 -90 -2 -8 -4 -15 -6 -15 -1 0 -3 -9 -4 -20 -2 -11 -4 -24 -5 -30 -14 -59
31 -115 91 -115 77 0 94 23 133 172 14 51 61 224 106 383 45 160 84 297 86
305 30 113 86 312 95 335 35 95 26 92 289 110 41 3 100 8 130 11 30 3 80 7
110 9 30 2 55 4 55 5 0 0 25 3 55 5 86 7 311 26 320 28 3 1 19 -2 36 -5 32 -7
60 -39 68 -80 3 -12 12 -52 19 -88 8 -36 17 -84 21 -108 3 -24 7 -46 10 -50 2
-4 7 -37 10 -74 4 -37 9 -77 11 -90 6 -27 16 -224 16 -313 1 -50 -3 -143 -15
-325 0 -14 -3 -29 -6 -35 -6 -11 -5 -71 1 -95 6 -22 51 -60 74 -61 71 -4 99
17 124 94 11 34 34 109 51 167 18 58 38 122 46 143 8 20 12 37 9 37 -3 0 1 14
10 30 9 17 14 30 11 30 -2 0 3 21 11 47 78 252 164 533 173 568 17 66 68 225
81 254 8 17 25 35 39 41 25 10 42 13 155 25 33 4 71 8 85 10 14 3 48 7 75 10
28 3 61 8 75 10 14 2 54 7 90 10 36 4 72 9 81 10 9 2 38 6 65 9 27 4 65 9 84
12 58 9 68 7 102 -28 45 -45 138 -122 165 -136 12 -7 37 -12 56 -12 49 0 97
54 92 104 -3 37 -30 82 -55 91 -8 3 -30 19 -48 35 -23 21 -31 37 -28 53 6 32
-18 82 -48 102 -15 10 -40 15 -60 14 -29 -3 -39 1 -53 21 -9 14 -20 27 -24 30
-25 19 -149 250 -133 250 2 0 0 9 -6 20 -6 11 -13 33 -15 48 -3 15 -9 47 -14
72 -12 57 -7 227 9 300 28 130 91 275 174 397 63 95 59 89 128 167 111 125
237 233 373 322 33 21 62 42 63 47 2 4 12 7 23 7 10 0 19 4 19 8 0 8 40 30 50
28 3 0 19 9 37 22 17 12 34 22 37 22 3 0 31 12 63 27 32 15 62 26 67 25 4 -2
13 2 20 7 28 23 255 84 366 98 118 15 320 5 386 -19 72 -26 105 -102 99 -228
-4 -90 -7 -109 -32 -205 -8 -33 -16 -67 -18 -75 -12 -58 -122 -368 -167 -470
-18 -42 -27 -63 -47 -116 -11 -28 -28 -71 -39 -95 -11 -24 -27 -64 -37 -89
-10 -25 -28 -68 -41 -95 -58 -132 -204 -498 -204 -511 0 -7 -5 -14 -11 -14 -5
0 -8 -4 -5 -8 3 -5 -2 -21 -10 -36 -7 -16 -14 -32 -14 -36 0 -5 -5 -21 -12
-37 -6 -15 -12 -30 -13 -33 0 -3 -20 -61 -42 -130 -49 -148 -99 -335 -114
-428 -6 -37 -13 -80 -15 -97 -10 -60 -12 -291 -3 -340 5 -27 11 -59 13 -70 21
-106 90 -229 176 -312 90 -88 284 -176 441 -200 58 -9 231 -10 294 -1 200 28
373 126 570 323 98 98 127 132 211 245 68 91 194 292 194 308 0 7 5 12 10 12
6 0 10 5 10 11 0 6 15 36 33 67 17 31 46 86 62 122 17 36 35 71 42 77 15 17
58 17 71 1 11 -14 21 -88 12 -88 -7 0 -4 -360 4 -412 14 -100 19 -126 41 -204
75 -258 263 -426 525 -470 61 -10 196 -12 245 -3 22 4 57 10 77 13 43 7 145
44 209 76 138 70 297 210 424 374 17 21 36 45 43 52 6 7 12 15 12 18 0 3 22
39 49 79 104 155 224 394 303 607 45 122 46 123 45 130 0 3 5 15 12 28 7 13
14 31 16 40 2 9 20 71 40 137 33 110 80 294 92 355 2 14 8 44 14 68 5 23 12
59 15 78 3 20 7 45 9 54 2 10 7 40 11 67 3 26 8 56 10 67 2 10 6 44 9 75 4 31
8 67 10 80 20 121 27 570 12 706 -27 239 -57 358 -133 525 -38 81 -120 196
-165 229 -16 12 -29 26 -29 30 0 5 -16 37 -35 71 -33 59 -35 66 -28 124 16
143 2 496 -27 711 -19 138 -25 155 -56 155 -19 0 -28 -9 -40 -39 -8 -22 -23
-42 -31 -45 -19 -8 -14 -16 -47 79 -15 44 -33 94 -41 110 -7 17 -23 55 -36 85
-13 30 -33 74 -46 98 -13 23 -21 42 -17 42 4 0 1 8 -7 18 -8 9 -21 31 -29 47
-8 17 -38 70 -67 118 -29 48 -53 92 -53 97 0 4 -3 10 -7 12 -5 2 -35 44 -68
93 -32 50 -62 92 -65 95 -3 3 -17 21 -30 40 -61 90 -216 258 -257 279 -58 30
-71 2 -36 -75 14 -32 28 -76 31 -98 4 -40 4 -41 -16 -23 -11 10 -60 70 -108
134 -127 165 -215 277 -223 283 -3 3 -31 34 -61 70 -85 102 -198 217 -277 282
-111 91 -165 81 -106 -19 15 -26 28 -54 30 -62 1 -8 4 -25 8 -38 7 -30 -4 -29
-53 7 -23 17 -46 30 -52 30 -5 0 -10 5 -10 10 0 6 -6 10 -14 10 -8 0 -16 3
-18 8 -3 6 -78 57 -129 87 -10 6 -65 38 -123 73 -136 81 -350 192 -368 191 -7
0 -42 -9 -78 -20z m-5020 -4673 c85 -13 98 -17 119 -40 22 -23 36 -92 21 -101
-4 -3 -11 -20 -14 -40 -4 -19 -27 -105 -52 -192 -25 -87 -47 -165 -49 -173 -2
-8 -16 -58 -31 -110 -29 -105 -62 -149 -112 -151 -15 0 -49 -2 -77 -4 -317
-18 -832 -31 -908 -22 -20 3 -40 1 -43 -4 -3 -5 -10 -7 -15 -3 -5 3 -64 7
-131 9 -149 5 -325 19 -381 31 -12 2 -40 7 -62 10 -59 9 -143 43 -165 66 -17
18 -18 24 -6 47 8 14 36 46 63 71 46 44 215 170 227 170 3 0 15 8 26 17 19 17
91 61 140 86 14 7 59 30 100 52 41 21 77 39 80 40 3 0 27 11 54 23 155 70 428
156 566 177 14 2 34 6 45 8 11 3 40 8 65 12 25 3 59 9 75 12 17 2 61 6 98 8
38 2 70 5 72 7 7 6 248 2 295 -6z m447 -122 c43 -19 115 -60 161 -91 85 -56
252 -210 252 -231 0 -7 4 -12 9 -12 14 0 101 -135 101 -157 0 -71 -44 -111
-128 -118 -26 -2 -67 -7 -92 -9 -94 -11 -202 -20 -344 -30 -44 -3 -81 -8 -83
-10 -9 -9 -89 17 -106 35 -27 29 -27 65 -1 154 13 44 26 89 28 100 7 30 63
232 83 295 9 30 18 61 19 68 4 21 13 42 19 42 3 0 40 -16 82 -36z m1052 -774
c25 -13 49 -58 46 -85 -2 -22 -23 -102 -32 -125 -3 -8 -7 -22 -9 -31 -2 -9
-14 -52 -28 -95 -13 -44 -29 -101 -36 -127 -7 -26 -15 -45 -17 -43 -4 4 -9 38
-14 106 -2 19 -37 214 -46 255 -13 61 -8 104 16 129 33 35 75 40 120 16z"/>
</g>
</svg>
